<svg xmlns="http://www.w3.org/2000/svg" version="1.1" xmlns:xlink="http://www.w3.org/1999/xlink" xmlns:svgjs="http://svgjs.com/svgjs" width="1440" height="560" preserveAspectRatio="none" viewBox="0 0 1440 560"><g mask="url(&quot;#SvgjsMask1023&quot;)" fill="none"><rect width="1440" height="560" x="0" y="0" fill="#0e2a47"></rect><path d="M127 331L126 101" stroke-width="8" stroke="url(#SvgjsLinearGradient1024)" stroke-linecap="round" class="Up"></path><path d="M214 292L213 636" stroke-width="8" stroke="url(#SvgjsLinearGradient1024)" stroke-linecap="round" class="Up"></path><path d="M560 367L559 52" stroke-width="6" stroke="url(#SvgjsLinearGradient1024)" stroke-linecap="round" class="Up"></path><path d="M484 182L483 382" stroke-width="8" stroke="url(#SvgjsLinearGradient1024)" stroke-linecap="round" class="Up"></path><path d="M1358 169L1357 423" stroke-width="8" stroke="url(#SvgjsLinearGradient1025)" stroke-linecap="round" class="Down"></path><path d="M268 158L267 -87" stroke-width="8" stroke="url(#SvgjsLinearGradient1025)" stroke-linecap="round" class="Down"></path><path d="M114 179L113 -7" stroke-width="10" stroke="url(#SvgjsLinearGradient1025)" stroke-linecap="round" class="Down"></path><path d="M699 405L698 114" stroke-width="6" stroke="url(#SvgjsLinearGradient1024)" stroke-linecap="round" class="Up"></path><path d="M299 119L298 423" stroke-width="10" stroke="url(#SvgjsLinearGradient1025)" stroke-linecap="round" class="Down"></path><path d="M637 158L636 361" stroke-width="10" stroke="url(#SvgjsLinearGradient1024)" stroke-linecap="round" class="Up"></path><path d="M537 296L536 41" stroke-width="10" stroke="url(#SvgjsLinearGradient1025)" stroke-linecap="round" class="Down"></path><path d="M387 23L386 -198" stroke-width="8" stroke="url(#SvgjsLinearGradient1025)" stroke-linecap="round" class="Down"></path><path d="M805 454L804 787" stroke-width="8" stroke="url(#SvgjsLinearGradient1024)" stroke-linecap="round" class="Up"></path><path d="M1118 242L1117 27" stroke-width="10" stroke="url(#SvgjsLinearGradient1024)" stroke-linecap="round" class="Up"></path><path d="M428 39L427 -368" stroke-width="8" stroke="url(#SvgjsLinearGradient1025)" stroke-linecap="round" class="Down"></path><path d="M548 402L547 208" stroke-width="8" stroke="url(#SvgjsLinearGradient1025)" stroke-linecap="round" class="Down"></path><path d="M104 535L103 271" stroke-width="8" stroke="url(#SvgjsLinearGradient1024)" stroke-linecap="round" class="Up"></path><path d="M225 193L224 -209" stroke-width="6" stroke="url(#SvgjsLinearGradient1024)" stroke-linecap="round" class="Up"></path><path d="M1373 421L1372 828" stroke-width="10" stroke="url(#SvgjsLinearGradient1024)" stroke-linecap="round" class="Up"></path><path d="M984 266L983 505" stroke-width="8" stroke="url(#SvgjsLinearGradient1024)" stroke-linecap="round" class="Up"></path><path d="M1217 415L1216 169" stroke-width="10" stroke="url(#SvgjsLinearGradient1025)" stroke-linecap="round" class="Down"></path><path d="M1293 11L1292 -154" stroke-width="8" stroke="url(#SvgjsLinearGradient1024)" stroke-linecap="round" class="Up"></path><path d="M1205 339L1204 160" stroke-width="6" stroke="url(#SvgjsLinearGradient1024)" stroke-linecap="round" class="Up"></path><path d="M968 9L967 343" stroke-width="10" stroke="url(#SvgjsLinearGradient1024)" stroke-linecap="round" class="Up"></path><path d="M1373 405L1372 237" stroke-width="6" stroke="url(#SvgjsLinearGradient1024)" stroke-linecap="round" class="Up"></path><path d="M1316 528L1315 714" stroke-width="10" stroke="url(#SvgjsLinearGradient1025)" stroke-linecap="round" class="Down"></path><path d="M652 242L651 -66" stroke-width="8" stroke="url(#SvgjsLinearGradient1024)" stroke-linecap="round" class="Up"></path><path d="M341 197L340 -194" stroke-width="8" stroke="url(#SvgjsLinearGradient1024)" stroke-linecap="round" class="Up"></path><path d="M1309 134L1308 450" stroke-width="6" stroke="url(#SvgjsLinearGradient1024)" stroke-linecap="round" class="Up"></path><path d="M1296 98L1295 347" stroke-width="8" stroke="url(#SvgjsLinearGradient1025)" stroke-linecap="round" class="Down"></path><path d="M1336 347L1335 703" stroke-width="10" stroke="url(#SvgjsLinearGradient1025)" stroke-linecap="round" class="Down"></path><path d="M1176 64L1175 -276" stroke-width="10" stroke="url(#SvgjsLinearGradient1025)" stroke-linecap="round" class="Down"></path><path d="M1220 540L1219 363" stroke-width="8" stroke="url(#SvgjsLinearGradient1025)" stroke-linecap="round" class="Down"></path><path d="M894 456L893 837" stroke-width="10" stroke="url(#SvgjsLinearGradient1024)" stroke-linecap="round" class="Up"></path><path d="M842 99L841 304" stroke-width="6" stroke="url(#SvgjsLinearGradient1025)" stroke-linecap="round" class="Down"></path><path d="M1108 321L1107 -44" stroke-width="6" stroke="url(#SvgjsLinearGradient1025)" stroke-linecap="round" class="Down"></path></g><defs><mask id="SvgjsMask1023"><rect width="1440" height="560" fill="#ffffff"></rect></mask><linearGradient x1="0%" y1="100%" x2="0%" y2="0%" id="SvgjsLinearGradient1024"><stop stop-color="rgba(28, 83, 142, 0)" offset="0"></stop><stop stop-color="#1c538e" offset="1"></stop></linearGradient><linearGradient x1="0%" y1="0%" x2="0%" y2="100%" id="SvgjsLinearGradient1025"><stop stop-color="rgba(28, 83, 142, 0)" offset="0"></stop><stop stop-color="#1c538e" offset="1"></stop></linearGradient></defs></svg>